<svg width="20" height="20" viewBox="0 0 20 20" fill="none" xmlns="http://www.w3.org/2000/svg">
<path d="M13.3333 15.1851V16.6665H0.37037C0.165556 16.6665 0 16.8325 0 17.0369C0 17.2414 0.165556 17.4073 0.37037 17.4073H13.3333V18.8888C13.3333 19.0932 13.4989 19.2591 13.7037 19.2591H18.1481C18.353 19.2591 18.5185 19.0932 18.5185 18.8888V17.4073H19.6296C19.8344 17.4073 20 17.2414 20 17.0369C20 16.8325 19.8344 16.6665 19.6296 16.6665H18.5185V15.1851C18.5185 14.9806 18.353 14.8147 18.1481 14.8147H13.7037C13.4989 14.8147 13.3333 14.9806 13.3333 15.1851Z" fill="black"/>
<path d="M7.40741 8.14796V9.62944H0.37037C0.165556 9.62944 0 9.79537 0 9.99981C0 10.2043 0.165556 10.3702 0.37037 10.3702H7.40741V11.8517C7.40741 12.0561 7.57296 12.222 7.77778 12.222H12.2222C12.427 12.222 12.5926 12.0561 12.5926 11.8517V10.3702H19.6296C19.8344 10.3702 20 10.2043 20 9.99981C20 9.79537 19.8344 9.62944 19.6296 9.62944H12.5926V8.14796C12.5926 7.94351 12.427 7.77759 12.2222 7.77759H7.77778C7.57296 7.77759 7.40741 7.94351 7.40741 8.14796Z" fill="black"/>
<path d="M1.48148 1.11109V2.59257H0.37037C0.165556 2.59257 0 2.7585 0 2.96294C0 3.16739 0.165556 3.33332 0.37037 3.33332H1.48148V4.8148C1.48148 5.01924 1.64704 5.18517 1.85185 5.18517H6.2963C6.50111 5.18517 6.66667 5.01924 6.66667 4.8148V3.33332H19.6296C19.8344 3.33332 20 3.16739 20 2.96294C20 2.7585 19.8344 2.59257 19.6296 2.59257H6.66667V1.11109C6.66667 0.906649 6.50111 0.740723 6.2963 0.740723H1.85185C1.64704 0.740723 1.48148 0.906649 1.48148 1.11109Z" fill="black"/>
</svg>
