<svg width="34" height="34" viewBox="0 0 34 34" fill="none" xmlns="http://www.w3.org/2000/svg">
<g clip-path="url(#clip0)">
<path d="M35.593 30.7803L25.5625 21.0284C27.2275 18.8682 28.2267 16.1968 28.2267 13.2963C28.2267 6.16345 22.2585 0.361111 14.9219 0.361111C7.58531 0.361111 1.61719 6.16345 1.61719 13.2963C1.61719 20.4291 7.58531 26.2314 14.9219 26.2314C17.9053 26.2314 20.6531 25.2601 22.875 23.6413L32.9055 33.3932L35.593 30.7803ZM2.88431 13.2963C2.88431 6.84286 8.28413 1.59303 14.9219 1.59303C21.5597 1.59303 26.9595 6.84286 26.9595 13.2963C26.9595 19.7497 21.5597 24.9995 14.9219 24.9995C8.28413 24.9995 2.88431 19.7497 2.88431 13.2963ZM24.151 22.593C24.2637 22.487 24.3746 22.3792 24.4836 22.2696C24.5761 22.1766 24.6762 22.0909 24.7655 21.9955L33.8013 30.7803L32.9049 31.6519L23.8697 22.8664C23.9679 22.7796 24.0553 22.6823 24.151 22.593Z" fill="white"/>
</g>
<defs>
<clipPath id="clip0">
<rect width="34" height="33.0556" fill="white" transform="translate(0 0.361111)"/>
</clipPath>
</defs>
</svg>
