<svg width="35" height="34" viewBox="0 0 35 34" fill="none" xmlns="http://www.w3.org/2000/svg">
<g clip-path="url(#clip0)">
<path d="M29.4327 33.4167H5.09182C4.95067 33.4167 4.8157 33.3606 4.71885 33.2614C4.622 33.1622 4.57049 33.029 4.57667 32.8918L5.73576 9.227C5.74916 8.95955 5.97479 8.75019 6.25091 8.75019H28.2736C28.5487 8.75019 28.7754 8.95955 28.7888 9.227L29.9479 32.8918C29.9541 33.029 29.9036 33.1622 29.8057 33.2614C29.7078 33.3606 29.5728 33.4167 29.4327 33.4167ZM5.6317 32.415H28.8918L27.7822 9.75188H6.74134L5.6317 32.415Z" fill="white"/>
<path d="M22.8305 11.7553C22.5461 11.7553 22.3153 11.5309 22.3153 11.2544V6.27605C22.3153 3.5675 20.0486 1.36279 17.2617 1.36279C14.4747 1.36279 12.208 3.5675 12.208 6.27605V11.2544C12.208 11.5309 11.9772 11.7553 11.6929 11.7553C11.4085 11.7553 11.1777 11.5309 11.1777 11.2544V6.27605C11.1777 3.01457 13.907 0.361111 17.2617 0.361111C20.6163 0.361111 23.3456 3.01457 23.3456 6.27605V11.2544C23.3456 11.5309 23.1159 11.7553 22.8305 11.7553Z" fill="white"/>
</g>
<defs>
<clipPath id="clip0">
<rect width="34" height="33.0556" fill="white" transform="translate(0.261719 0.361111)"/>
</clipPath>
</defs>
</svg>
