<svg width="20" height="18" viewBox="0 0 20 18" fill="none" xmlns="http://www.w3.org/2000/svg">
<path d="M15.9789 11.6505C15.9789 11.2022 15.6121 10.8354 15.1638 10.8354L0.818472 10.8354C0.50601 10.8354 0.220732 11.012 0.084902 11.2837C-0.0509283 11.5554 -0.023791 11.895 0.16641 12.1395L4.16029 17.4647C4.432 17.8315 4.93462 17.8994 5.3014 17.6277C5.66819 17.356 5.73613 16.8534 5.46442 16.4866L2.44863 12.4656L15.1638 12.4656C15.6121 12.4656 15.9789 12.0988 15.9789 11.6505Z" fill="black"/>
<path d="M4.16016 6.35252C4.16016 6.80082 4.52694 7.1676 4.97523 7.1676L19.1848 7.1676C19.4972 7.1676 19.7689 6.99102 19.9183 6.71931C19.9727 6.59705 19.9999 6.47478 19.9999 6.35252C19.9999 6.17594 19.9455 6.01292 19.8368 5.86347L15.9109 0.538272C15.6392 0.171486 15.1366 0.103546 14.7698 0.361687C14.403 0.633396 14.3351 1.13601 14.5932 1.5028L17.5682 5.53744L4.97528 5.53744C4.52694 5.53744 4.16016 5.90423 4.16016 6.35252Z" fill="black"/>
</svg>
