<svg width="35" height="34" viewBox="0 0 35 34" fill="none" xmlns="http://www.w3.org/2000/svg">
<g clip-path="url(#clip0)">
<path d="M17.334 0.361111C7.94525 0.361111 0.333984 7.76095 0.333984 16.8889C0.333984 26.0168 7.94525 33.4167 17.334 33.4167C17.8461 33.4167 18.3564 33.3943 18.8641 33.35C19.3361 33.3088 19.804 33.2458 20.2683 33.167L20.4468 33.1364C29.0788 31.5702 35.0639 23.8704 34.2565 15.3693C33.4491 6.86812 26.1151 0.363801 17.334 0.361111V0.361111ZM15.9682 32.2564H15.9281C15.4873 32.2185 15.0499 32.1612 14.6163 32.0878C14.5914 32.0835 14.5665 32.0808 14.5422 32.0762C14.1183 32.0025 13.6988 31.911 13.2835 31.8042L13.183 31.7792C12.778 31.6724 12.3773 31.5484 11.9825 31.4107C11.9415 31.3964 11.9003 31.3838 11.8593 31.369C11.4722 31.2307 11.0921 31.0758 10.7177 30.9082C10.6712 30.888 10.6247 30.8686 10.5783 30.8471C10.2111 30.6819 9.85111 30.4958 9.49805 30.3C9.44824 30.2725 9.39789 30.2451 9.34808 30.2179C9.00055 30.0207 8.66105 29.8093 8.32791 29.586C8.27756 29.5518 8.22664 29.5188 8.17656 29.4846C7.84924 29.2589 7.53021 29.0192 7.21948 28.7685L7.13399 28.6959V24.0509C7.13814 20.7056 9.92637 17.9948 13.3673 17.9907H21.3007C24.7416 17.9948 27.5298 20.7056 27.534 24.0509V28.6964L27.4587 28.7575C27.1419 29.0146 26.8168 29.2578 26.4828 29.4876C26.4386 29.5177 26.3937 29.5465 26.3497 29.5761C26.0127 29.8036 25.6674 30.0178 25.3138 30.219C25.2695 30.244 25.2242 30.2677 25.1802 30.2924C24.8218 30.4907 24.4574 30.6779 24.0858 30.8466C24.0432 30.8659 24.0003 30.884 23.9572 30.9017C23.5798 31.0709 23.1963 31.2267 22.8064 31.366C22.7677 31.38 22.7287 31.3921 22.693 31.4053C22.2962 31.5436 21.8939 31.6687 21.4866 31.776L21.3889 31.7997C20.973 31.9065 20.5533 31.9985 20.1289 32.0724C20.1045 32.0767 20.0802 32.0797 20.0558 32.0835C19.6217 32.1572 19.1837 32.2145 18.7426 32.2527H18.7025C18.2493 32.2906 17.7958 32.3111 17.3368 32.3111C16.8777 32.3111 16.4206 32.2944 15.9682 32.2564ZM28.6673 27.675V24.0509C28.6626 20.0973 25.3672 16.8935 21.3007 16.8889H13.3673C9.30077 16.8935 6.00536 20.0973 6.00065 24.0509V27.6744C-0.102637 21.6183 -0.0345703 11.9085 6.15283 5.93359C12.3402 -0.0410545 22.3277 -0.0410545 28.5151 5.93359C34.7025 11.9085 34.7706 21.6183 28.6673 27.6744V27.675Z" fill="white"/>
<path d="M17.3346 4.76844C14.205 4.76844 11.668 7.23496 11.668 10.2777C11.668 13.3204 14.205 15.787 17.3346 15.787C20.4643 15.787 23.0013 13.3204 23.0013 10.2777C22.998 7.23631 20.4629 4.77166 17.3346 4.76844ZM17.3346 14.6851C14.8308 14.6851 12.8013 12.7119 12.8013 10.2777C12.8013 7.84345 14.8308 5.87029 17.3346 5.87029C19.8384 5.87029 21.868 7.84345 21.868 10.2777C21.8652 12.7106 19.837 14.6824 17.3346 14.6851Z" fill="white"/>
</g>
<defs>
<clipPath id="clip0">
<rect width="34" height="33.0556" fill="white" transform="translate(0.333984 0.361111)"/>
</clipPath>
</defs>
</svg>
